<?xml version="1.0" encoding="UTF-8" standalone="no"?>
<!DOCTYPE svg PUBLIC "-//W3C//DTD SVG 1.1//EN"
 "http://www.w3.org/Graphics/SVG/1.1/DTD/svg11.dtd">
<!-- Generated by graphviz version 3.0.0 (20220226.1711)
 -->
<!-- Title: dependencies Pages: 1 -->
<svg width="300pt" height="174pt"
 viewBox="0.00 0.00 300.00 173.80" xmlns="http://www.w3.org/2000/svg" xmlns:xlink="http://www.w3.org/1999/xlink">
<g id="graph0" class="graph" transform="scale(1 1) rotate(0) translate(4 169.8)">
<title>dependencies</title>
<polygon fill="white" stroke="transparent" points="-4,4 -4,-169.8 296,-169.8 296,4 -4,4"/>
<text text-anchor="middle" x="146" y="-8.2" font-family="sans-serif" font-size="14.00">dependencies</text>
<g id="clust1" class="cluster">
<title>cluster_PerfilModule</title>
<polygon fill="none" stroke="black" stroke-dasharray="1,5" points="8,-32.8 8,-157.8 284,-157.8 284,-32.8 8,-32.8"/>
</g>
<g id="clust6" class="cluster">
<title>cluster_PerfilModule_providers</title>
<polygon fill="none" stroke="black" points="138,-40.8 138,-92.8 276,-92.8 276,-40.8 138,-40.8"/>
</g>
<g id="clust3" class="cluster">
<title>cluster_PerfilModule_imports</title>
<polygon fill="none" stroke="black" points="16,-40.8 16,-92.8 130,-92.8 130,-40.8 16,-40.8"/>
</g>
<!-- PrismaModule -->
<g id="node1" class="node">
<title>PrismaModule</title>
<polygon fill="#8dd3c7" stroke="black" points="122.44,-84.8 119.44,-88.8 98.44,-88.8 95.44,-84.8 23.56,-84.8 23.56,-48.8 122.44,-48.8 122.44,-84.8"/>
<text text-anchor="middle" x="73" y="-62.6" font-family="Times,serif" font-size="14.00">PrismaModule</text>
</g>
<!-- PerfilModule -->
<g id="node2" class="node">
<title>PerfilModule</title>
<polygon fill="#8dd3c7" stroke="black" points="185.16,-149.8 182.16,-153.8 161.16,-153.8 158.16,-149.8 94.84,-149.8 94.84,-113.8 185.16,-113.8 185.16,-149.8"/>
<text text-anchor="middle" x="140" y="-127.6" font-family="Times,serif" font-size="14.00">PerfilModule</text>
</g>
<!-- PrismaModule&#45;&gt;PerfilModule -->
<g id="edge1" class="edge">
<title>PrismaModule&#45;&gt;PerfilModule</title>
<path fill="none" stroke="black" d="M108.45,-84.91C108.45,-84.91 108.45,-103.79 108.45,-103.79"/>
<polygon fill="black" stroke="black" points="104.95,-103.79 108.45,-113.79 111.95,-103.79 104.95,-103.79"/>
</g>
<!-- PerfilService -->
<g id="node3" class="node">
<title>PerfilService</title>
<ellipse fill="#fdb462" stroke="black" cx="207" cy="-66.8" rx="61.4" ry="18"/>
<text text-anchor="middle" x="207" y="-62.6" font-family="Times,serif" font-size="14.00">PerfilService</text>
</g>
<!-- PerfilService&#45;&gt;PerfilModule -->
<g id="edge2" class="edge">
<title>PerfilService&#45;&gt;PerfilModule</title>
<path fill="none" stroke="black" d="M165.44,-80.27C165.44,-80.27 165.44,-103.66 165.44,-103.66"/>
<polygon fill="black" stroke="black" points="161.94,-103.66 165.44,-113.66 168.94,-103.66 161.94,-103.66"/>
</g>
</g>
</svg>
