<?xml version="1.0" encoding="UTF-8" standalone="no"?>
<!DOCTYPE svg PUBLIC "-//W3C//DTD SVG 1.1//EN"
 "http://www.w3.org/Graphics/SVG/1.1/DTD/svg11.dtd">
<!-- Generated by graphviz version 3.0.0 (20220226.1711)
 -->
<!-- Title: dependencies Pages: 1 -->
<svg width="304pt" height="174pt"
 viewBox="0.00 0.00 304.00 173.80" xmlns="http://www.w3.org/2000/svg" xmlns:xlink="http://www.w3.org/1999/xlink">
<g id="graph0" class="graph" transform="scale(1 1) rotate(0) translate(4 169.8)">
<title>dependencies</title>
<polygon fill="white" stroke="transparent" points="-4,4 -4,-169.8 300,-169.8 300,4 -4,4"/>
<text text-anchor="middle" x="148" y="-8.2" font-family="sans-serif" font-size="14.00">dependencies</text>
<g id="clust1" class="cluster">
<title>cluster_GameModule</title>
<polygon fill="none" stroke="black" stroke-dasharray="1,5" points="8,-32.8 8,-157.8 288,-157.8 288,-32.8 8,-32.8"/>
</g>
<g id="clust3" class="cluster">
<title>cluster_GameModule_imports</title>
<polygon fill="none" stroke="black" points="166,-40.8 166,-92.8 280,-92.8 280,-40.8 166,-40.8"/>
</g>
<g id="clust6" class="cluster">
<title>cluster_GameModule_providers</title>
<polygon fill="none" stroke="black" points="16,-40.8 16,-92.8 158,-92.8 158,-40.8 16,-40.8"/>
</g>
<!-- PrismaModule -->
<g id="node1" class="node">
<title>PrismaModule</title>
<polygon fill="#8dd3c7" stroke="black" points="272.44,-84.8 269.44,-88.8 248.44,-88.8 245.44,-84.8 173.56,-84.8 173.56,-48.8 272.44,-48.8 272.44,-84.8"/>
<text text-anchor="middle" x="223" y="-62.6" font-family="Times,serif" font-size="14.00">PrismaModule</text>
</g>
<!-- GameModule -->
<g id="node2" class="node">
<title>GameModule</title>
<polygon fill="#8dd3c7" stroke="black" points="201.48,-149.8 198.48,-153.8 177.48,-153.8 174.48,-149.8 108.52,-149.8 108.52,-113.8 201.48,-113.8 201.48,-149.8"/>
<text text-anchor="middle" x="155" y="-127.6" font-family="Times,serif" font-size="14.00">GameModule</text>
</g>
<!-- PrismaModule&#45;&gt;GameModule -->
<g id="edge1" class="edge">
<title>PrismaModule&#45;&gt;GameModule</title>
<path fill="none" stroke="black" d="M187.63,-84.91C187.63,-84.91 187.63,-103.79 187.63,-103.79"/>
<polygon fill="black" stroke="black" points="184.13,-103.79 187.63,-113.79 191.13,-103.79 184.13,-103.79"/>
</g>
<!-- GameService -->
<g id="node3" class="node">
<title>GameService</title>
<ellipse fill="#fdb462" stroke="black" cx="87" cy="-66.8" rx="63.1" ry="18"/>
<text text-anchor="middle" x="87" y="-62.6" font-family="Times,serif" font-size="14.00">GameService</text>
</g>
<!-- GameService&#45;&gt;GameModule -->
<g id="edge2" class="edge">
<title>GameService&#45;&gt;GameModule</title>
<path fill="none" stroke="black" d="M129.28,-80.27C129.28,-80.27 129.28,-103.66 129.28,-103.66"/>
<polygon fill="black" stroke="black" points="125.78,-103.66 129.28,-113.66 132.78,-103.66 125.78,-103.66"/>
</g>
</g>
</svg>
