<?xml version="1.0" encoding="UTF-8" standalone="no"?>
<!DOCTYPE svg PUBLIC "-//W3C//DTD SVG 1.1//EN"
 "http://www.w3.org/Graphics/SVG/1.1/DTD/svg11.dtd">
<!-- Generated by graphviz version 3.0.0 (20220226.1711)
 -->
<!-- Title: dependencies Pages: 1 -->
<svg width="314pt" height="174pt"
 viewBox="0.00 0.00 314.00 173.80" xmlns="http://www.w3.org/2000/svg" xmlns:xlink="http://www.w3.org/1999/xlink">
<g id="graph0" class="graph" transform="scale(1 1) rotate(0) translate(4 169.8)">
<title>dependencies</title>
<polygon fill="white" stroke="transparent" points="-4,4 -4,-169.8 310,-169.8 310,4 -4,4"/>
<text text-anchor="middle" x="153" y="-8.2" font-family="sans-serif" font-size="14.00">dependencies</text>
<g id="clust1" class="cluster">
<title>cluster_GeneroModule</title>
<polygon fill="none" stroke="black" stroke-dasharray="1,5" points="8,-32.8 8,-157.8 298,-157.8 298,-32.8 8,-32.8"/>
</g>
<g id="clust6" class="cluster">
<title>cluster_GeneroModule_providers</title>
<polygon fill="none" stroke="black" points="138,-40.8 138,-92.8 290,-92.8 290,-40.8 138,-40.8"/>
</g>
<g id="clust3" class="cluster">
<title>cluster_GeneroModule_imports</title>
<polygon fill="none" stroke="black" points="16,-40.8 16,-92.8 130,-92.8 130,-40.8 16,-40.8"/>
</g>
<!-- PrismaModule -->
<g id="node1" class="node">
<title>PrismaModule</title>
<polygon fill="#8dd3c7" stroke="black" points="122.44,-84.8 119.44,-88.8 98.44,-88.8 95.44,-84.8 23.56,-84.8 23.56,-48.8 122.44,-48.8 122.44,-84.8"/>
<text text-anchor="middle" x="73" y="-62.6" font-family="Times,serif" font-size="14.00">PrismaModule</text>
</g>
<!-- GeneroModule -->
<g id="node2" class="node">
<title>GeneroModule</title>
<polygon fill="#8dd3c7" stroke="black" points="193.25,-149.8 190.25,-153.8 169.25,-153.8 166.25,-149.8 92.75,-149.8 92.75,-113.8 193.25,-113.8 193.25,-149.8"/>
<text text-anchor="middle" x="143" y="-127.6" font-family="Times,serif" font-size="14.00">GeneroModule</text>
</g>
<!-- PrismaModule&#45;&gt;GeneroModule -->
<g id="edge1" class="edge">
<title>PrismaModule&#45;&gt;GeneroModule</title>
<path fill="none" stroke="black" d="M107.42,-84.91C107.42,-84.91 107.42,-103.79 107.42,-103.79"/>
<polygon fill="black" stroke="black" points="103.92,-103.79 107.42,-113.79 110.92,-103.79 103.92,-103.79"/>
</g>
<!-- GeneroService -->
<g id="node3" class="node">
<title>GeneroService</title>
<ellipse fill="#fdb462" stroke="black" cx="214" cy="-66.8" rx="68.32" ry="18"/>
<text text-anchor="middle" x="214" y="-62.6" font-family="Times,serif" font-size="14.00">GeneroService</text>
</g>
<!-- GeneroService&#45;&gt;GeneroModule -->
<g id="edge2" class="edge">
<title>GeneroService&#45;&gt;GeneroModule</title>
<path fill="none" stroke="black" d="M169.48,-80.58C169.48,-80.58 169.48,-103.35 169.48,-103.35"/>
<polygon fill="black" stroke="black" points="165.98,-103.35 169.48,-113.35 172.98,-103.35 165.98,-103.35"/>
</g>
</g>
</svg>
