<?xml version="1.0" encoding="UTF-8" standalone="no"?>
<!DOCTYPE svg PUBLIC "-//W3C//DTD SVG 1.1//EN"
 "http://www.w3.org/Graphics/SVG/1.1/DTD/svg11.dtd">
<!-- Generated by graphviz version 3.0.0 (20220226.1711)
 -->
<!-- Title: dependencies Pages: 1 -->
<svg width="847pt" height="174pt"
 viewBox="0.00 0.00 847.00 173.80" xmlns="http://www.w3.org/2000/svg" xmlns:xlink="http://www.w3.org/1999/xlink">
<g id="graph0" class="graph" transform="scale(1 1) rotate(0) translate(4 169.8)">
<title>dependencies</title>
<polygon fill="white" stroke="transparent" points="-4,4 -4,-169.8 843,-169.8 843,4 -4,4"/>
<text text-anchor="middle" x="419.5" y="-8.2" font-family="sans-serif" font-size="14.00">dependencies</text>
<g id="clust1" class="cluster">
<title>cluster_AppModule</title>
<polygon fill="none" stroke="black" stroke-dasharray="1,5" points="8,-32.8 8,-157.8 831,-157.8 831,-32.8 8,-32.8"/>
</g>
<g id="clust6" class="cluster">
<title>cluster_AppModule_providers</title>
<polygon fill="none" stroke="black" points="693,-40.8 693,-92.8 823,-92.8 823,-40.8 693,-40.8"/>
</g>
<g id="clust3" class="cluster">
<title>cluster_AppModule_imports</title>
<polygon fill="none" stroke="black" points="16,-40.8 16,-92.8 685,-92.8 685,-40.8 16,-40.8"/>
</g>
<!-- AuthModule -->
<g id="node1" class="node">
<title>AuthModule</title>
<polygon fill="#8dd3c7" stroke="black" points="676.55,-84.8 673.55,-88.8 652.55,-88.8 649.55,-84.8 589.45,-84.8 589.45,-48.8 676.55,-48.8 676.55,-84.8"/>
<text text-anchor="middle" x="633" y="-62.6" font-family="Times,serif" font-size="14.00">AuthModule</text>
</g>
<!-- AppModule -->
<g id="node7" class="node">
<title>AppModule</title>
<polygon fill="#8dd3c7" stroke="black" points="451.66,-149.8 448.66,-153.8 427.66,-153.8 424.66,-149.8 368.34,-149.8 368.34,-113.8 451.66,-113.8 451.66,-149.8"/>
<text text-anchor="middle" x="410" y="-127.6" font-family="Times,serif" font-size="14.00">AppModule</text>
</g>
<!-- AuthModule&#45;&gt;AppModule -->
<g id="edge1" class="edge">
<title>AuthModule&#45;&gt;AppModule</title>
<path fill="none" stroke="black" d="M633,-84.91C633,-104.14 633,-131.8 633,-131.8 633,-131.8 461.68,-131.8 461.68,-131.8"/>
<polygon fill="black" stroke="black" points="461.68,-128.3 451.68,-131.8 461.68,-135.3 461.68,-128.3"/>
</g>
<!-- GameModule -->
<g id="node2" class="node">
<title>GameModule</title>
<polygon fill="#8dd3c7" stroke="black" points="571.48,-84.8 568.48,-88.8 547.48,-88.8 544.48,-84.8 478.52,-84.8 478.52,-48.8 571.48,-48.8 571.48,-84.8"/>
<text text-anchor="middle" x="525" y="-62.6" font-family="Times,serif" font-size="14.00">GameModule</text>
</g>
<!-- GameModule&#45;&gt;AppModule -->
<g id="edge2" class="edge">
<title>GameModule&#45;&gt;AppModule</title>
<path fill="none" stroke="black" d="M525,-84.83C525,-101.2 525,-122.8 525,-122.8 525,-122.8 461.84,-122.8 461.84,-122.8"/>
<polygon fill="black" stroke="black" points="461.84,-119.3 451.84,-122.8 461.84,-126.3 461.84,-119.3"/>
</g>
<!-- GeneroModule -->
<g id="node3" class="node">
<title>GeneroModule</title>
<polygon fill="#8dd3c7" stroke="black" points="460.25,-84.8 457.25,-88.8 436.25,-88.8 433.25,-84.8 359.75,-84.8 359.75,-48.8 460.25,-48.8 460.25,-84.8"/>
<text text-anchor="middle" x="410" y="-62.6" font-family="Times,serif" font-size="14.00">GeneroModule</text>
</g>
<!-- GeneroModule&#45;&gt;AppModule -->
<g id="edge3" class="edge">
<title>GeneroModule&#45;&gt;AppModule</title>
<path fill="none" stroke="black" d="M410,-84.91C410,-84.91 410,-103.79 410,-103.79"/>
<polygon fill="black" stroke="black" points="406.5,-103.79 410,-113.79 413.5,-103.79 406.5,-103.79"/>
</g>
<!-- PerfilModule -->
<g id="node4" class="node">
<title>PerfilModule</title>
<polygon fill="#8dd3c7" stroke="black" points="341.16,-84.8 338.16,-88.8 317.16,-88.8 314.16,-84.8 250.84,-84.8 250.84,-48.8 341.16,-48.8 341.16,-84.8"/>
<text text-anchor="middle" x="296" y="-62.6" font-family="Times,serif" font-size="14.00">PerfilModule</text>
</g>
<!-- PerfilModule&#45;&gt;AppModule -->
<g id="edge4" class="edge">
<title>PerfilModule&#45;&gt;AppModule</title>
<path fill="none" stroke="black" d="M296,-84.83C296,-101.2 296,-122.8 296,-122.8 296,-122.8 358.2,-122.8 358.2,-122.8"/>
<polygon fill="black" stroke="black" points="358.2,-126.3 368.2,-122.8 358.2,-119.3 358.2,-126.3"/>
</g>
<!-- PrismaModule -->
<g id="node5" class="node">
<title>PrismaModule</title>
<polygon fill="#8dd3c7" stroke="black" points="232.44,-84.8 229.44,-88.8 208.44,-88.8 205.44,-84.8 133.56,-84.8 133.56,-48.8 232.44,-48.8 232.44,-84.8"/>
<text text-anchor="middle" x="183" y="-62.6" font-family="Times,serif" font-size="14.00">PrismaModule</text>
</g>
<!-- PrismaModule&#45;&gt;AppModule -->
<g id="edge5" class="edge">
<title>PrismaModule&#45;&gt;AppModule</title>
<path fill="none" stroke="black" d="M183,-84.91C183,-104.14 183,-131.8 183,-131.8 183,-131.8 358.1,-131.8 358.1,-131.8"/>
<polygon fill="black" stroke="black" points="358.1,-135.3 368.1,-131.8 358.1,-128.3 358.1,-135.3"/>
</g>
<!-- UsersModule -->
<g id="node6" class="node">
<title>UsersModule</title>
<polygon fill="#8dd3c7" stroke="black" points="115.94,-84.8 112.94,-88.8 91.94,-88.8 88.94,-84.8 24.06,-84.8 24.06,-48.8 115.94,-48.8 115.94,-84.8"/>
<text text-anchor="middle" x="70" y="-62.6" font-family="Times,serif" font-size="14.00">UsersModule</text>
</g>
<!-- UsersModule&#45;&gt;AppModule -->
<g id="edge6" class="edge">
<title>UsersModule&#45;&gt;AppModule</title>
<path fill="none" stroke="black" d="M70,-85.09C70,-107.01 70,-140.8 70,-140.8 70,-140.8 358.31,-140.8 358.31,-140.8"/>
<polygon fill="black" stroke="black" points="358.31,-144.3 368.31,-140.8 358.31,-137.3 358.31,-144.3"/>
</g>
<!-- AppService -->
<g id="node8" class="node">
<title>AppService</title>
<ellipse fill="#fdb462" stroke="black" cx="758" cy="-66.8" rx="56.75" ry="18"/>
<text text-anchor="middle" x="758" y="-62.6" font-family="Times,serif" font-size="14.00">AppService</text>
</g>
<!-- AppService&#45;&gt;AppModule -->
<g id="edge7" class="edge">
<title>AppService&#45;&gt;AppModule</title>
<path fill="none" stroke="black" d="M758,-85.09C758,-107.01 758,-140.8 758,-140.8 758,-140.8 461.98,-140.8 461.98,-140.8"/>
<polygon fill="black" stroke="black" points="461.98,-137.3 451.98,-140.8 461.98,-144.3 461.98,-137.3"/>
</g>
</g>
</svg>
